<?xml version="1.0" encoding="UTF-8"?>
<svg id="Layer_2" data-name="Layer 2" xmlns="http://www.w3.org/2000/svg" viewBox="0 0 100.01 95">
  <defs>
    <style>
      .cls-1 {
        fill: #cb333d;
        fill-rule: evenodd;
      }
    </style>
  </defs>
  <g id="Layer_1-2" data-name="Layer 1">
    <path class="cls-1" d="M51.9,10.03c-1.19-.69-2.6-.69-3.79,0L8.33,33.22l-3.79-8.47L44.33,1.56c3.56-2.08,7.78-2.08,11.35,0l39.79,23.19c3.13,1.79,4.92,5.64,4.48,9.6v27.48c0,2.63-1.86,4.75-4.16,4.75s-4.16-2.13-4.16-4.75v-17.99l-8.46,4.73v19.46c0,5.25-2.52,10.07-6.57,12.56l-20.67,12.71c-3.69,2.27-8.14,2.27-11.84,0l-20.67-12.71c-4.05-2.49-6.57-7.31-6.57-12.56v-19.46l-12.18-6.81c-6.16-3.45-6.23-13.45-.12-17.01l3.79,8.47,39.84,22.29c1.16.65,2.51.65,3.66,0l39.79-22.26v-.07L51.9,10.03ZM25.17,53.22v14.8c0,1.75.84,3.36,2.19,4.18l20.67,12.71c1.23.76,2.71.76,3.95,0l20.67-12.71c1.35-.83,2.19-2.44,2.19-4.18v-14.81l-19.34,10.82c-3.47,1.94-7.52,1.94-10.99,0l-19.34-10.82Z"/>
  </g>
</svg>