<svg width="258" height="44" viewBox="0 0 258 44" fill="none" xmlns="http://www.w3.org/2000/svg">
<path d="M107.8 7.2V19.1C107.8 19.4 107.7 19.5 106.6 19.5C105.7 19.5 105.6 19.4 105.4 19.2L100.4 10.4V19.1C100.4 19.4 100.2 19.5 99.3 19.5C98.4 19.5 98.3 19.4 98.3 19.1V7.2C98.3 6.9 98.4 6.8 99.5 6.8C100.3 6.8 100.5 6.9 100.6 7.1L105.6 15.9V7.2C105.6 6.9 105.7 6.8 106.6 6.8C107.7 6.8 107.8 6.9 107.8 7.2Z" fill="#44372B"/>
<path d="M120.5 13.2C120.5 17.8 119.2 19.7 115.5 19.7C111.8 19.7 110.5 17.9 110.5 13.2C110.5 8.50001 111.8 6.70001 115.5 6.70001C119.2 6.70001 120.5 8.50001 120.5 13.2ZM118.3 13.2C118.3 9.50001 117.6 8.50001 115.5 8.50001C113.4 8.50001 112.7 9.50001 112.7 13.2C112.7 16.9 113.4 17.9 115.5 17.9C117.6 17.8 118.3 16.9 118.3 13.2Z" fill="#44372B"/>
<path d="M125.3 14.6V19.1C125.3 19.4 125.1 19.5 124.2 19.5C123.3 19.5 123.1 19.4 123.1 19.1V7.30001C123.1 7.00001 123.3 6.90001 124.1 6.90001H127.2C130.4 6.90001 131.8 8.10001 131.8 10.8C131.8 12.5 131 13.6 129.5 14.2C130.3 14.6 130.7 15.3 131.2 16.4C131.5 17.2 131.9 18.2 132.1 19.1C132.2 19.4 132.2 19.6 131 19.6C130.1 19.6 129.9 19.5 129.8 19.2C129.7 18.6 129.5 17.9 129.2 17C128.6 15.6 127.9 14.6 126.6 14.6H125.3ZM125.3 12.8H127.2C129 12.8 129.6 12.4 129.6 10.7C129.6 9.10001 128.9 8.60001 127.2 8.60001H125.3V12.8Z" fill="#44372B"/>
<path d="M143.7 13.4V15.4C143.7 18.3 142.1 19.6 139.3 19.6C135.7 19.6 134.2 17.8 134.2 13.1C134.2 8.50001 135.5 6.60001 139.2 6.60001C142.1 6.60001 143.6 7.90001 143.6 10.1C143.6 10.5 143.4 10.6 142.6 10.6C141.7 10.6 141.6 10.5 141.6 10.2C141.6 9.10001 140.8 8.50001 139.3 8.50001C137.1 8.50001 136.5 9.50001 136.5 13.2C136.5 16.9 137.3 17.9 139.5 17.9C141.2 17.9 141.9 17.2 141.9 15.5V14.8H139.5C139.2 14.8 139.2 14.7 139.2 13.9C139.2 13.1 139.3 13 139.5 13H143C143.6 12.9 143.7 13 143.7 13.4Z" fill="#44372B"/>
<path d="M148.6 8.70001V12.1H153.4C153.7 12.1 153.8 12.2 153.8 13C153.8 13.8 153.7 13.9 153.4 13.9H148.6V17.6H154.1C154.4 17.6 154.5 17.7 154.5 18.5C154.5 19.3 154.4 19.4 154.1 19.4H147.5C146.6 19.4 146.5 19.3 146.5 19V7.30001C146.5 7.00001 146.6 6.90001 147.5 6.90001H154.1C154.4 6.90001 154.4 7.00001 154.4 7.80001C154.4 8.60001 154.3 8.70001 154.1 8.70001H148.6Z" fill="#44372B"/>
<path d="M163.3 16.1C163.3 14.8 162.4 14.5 160.8 14.1C158.7 13.5 156.6 12.8 156.6 10.2C156.6 8.00001 157.7 6.70001 160.8 6.70001C163.7 6.70001 165 7.70001 165 10C165 10.4 164.9 10.4 164 10.4C163.1 10.4 163 10.3 163 10C163 8.90001 162.3 8.40001 160.8 8.40001C159.2 8.40001 158.7 8.90001 158.7 10C158.7 11.4 159.7 11.7 161.6 12.3C164 13 165.3 13.5 165.3 16.1C165.3 18.4 164.1 19.6 160.8 19.6C158 19.6 156.4 18.6 156.4 16.3C156.4 15.9 156.5 15.9 157.4 15.9C158.3 15.9 158.4 16 158.4 16.3C158.4 17.5 159.3 17.9 160.8 17.9C162.6 17.9 163.3 17.4 163.3 16.1Z" fill="#44372B"/>
<path d="M98.4 41.9V30C98.4 29.7 98.5 29.6 99.5 29.6C100.4 29.6 100.6 29.7 100.6 30V41.9C100.6 42.2 100.5 42.3 99.5 42.3C98.5 42.3 98.4 42.2 98.4 41.9Z" fill="#44372B"/>
<path d="M104.6 42.3C103.7 42.3 103.6 42.2 103.6 41.9V30.1C103.6 29.8 103.7 29.7 104.6 29.7H107.8C111.7 29.7 112.9 31.5 112.9 36C112.9 40.5 111.6 42.3 107.8 42.3H104.6ZM107.9 40.4C110.2 40.4 110.8 39.4 110.8 35.9C110.8 32.4 110.2 31.4 107.9 31.4H105.8V40.4H107.9Z" fill="#44372B"/>
<path d="M117.8 37.4V41.9C117.8 42.2 117.6 42.3 116.7 42.3C115.8 42.3 115.6 42.2 115.6 41.9V30.1C115.6 29.8 115.8 29.7 116.6 29.7H119.7C122.9 29.7 124.3 30.9 124.3 33.6C124.3 35.3 123.5 36.4 122 37C122.8 37.4 123.2 38.1 123.7 39.2C124 40 124.4 41 124.6 41.9C124.7 42.2 124.7 42.4 123.5 42.4C122.6 42.4 122.4 42.3 122.3 42C122.2 41.4 122 40.7 121.7 39.8C121.1 38.4 120.4 37.4 119.1 37.4H117.8ZM117.8 35.6H119.7C121.5 35.6 122.1 35.2 122.1 33.5C122.1 31.9 121.4 31.4 119.7 31.4H117.8V35.6Z" fill="#44372B"/>
<path d="M129.2 31.5V34.9H134C134.3 34.9 134.4 35 134.4 35.8C134.4 36.6 134.3 36.7 134 36.7H129.2V40.4H134.7C135 40.4 135.1 40.5 135.1 41.3C135.1 42.1 135 42.2 134.7 42.2H128.1C127.2 42.2 127.1 42.1 127.1 41.8V30.1C127.1 29.8 127.2 29.7 128.1 29.7H134.7C135 29.7 135 29.8 135 30.6C135 31.4 134.9 31.5 134.7 31.5H129.2Z" fill="#44372B"/>
<path d="M142.4 31.5V41.9C142.4 42.2 142.3 42.3 141.3 42.3C140.4 42.3 140.2 42.2 140.2 41.9V31.5H137.1C136.8 31.5 136.7 31.4 136.7 30.6C136.7 29.8 136.8 29.7 137.1 29.7H145.4C145.7 29.7 145.8 29.8 145.8 30.6C145.8 31.4 145.7 31.5 145.4 31.5H142.4Z" fill="#44372B"/>
<path d="M152.7 31.5V41.9C152.7 42.2 152.6 42.3 151.6 42.3C150.6 42.3 150.5 42.2 150.5 41.9V31.5H147.4C147.1 31.5 147 31.4 147 30.6C147 29.8 147.1 29.7 147.4 29.7H155.7C156 29.7 156.1 29.8 156.1 30.6C156.1 31.4 156 31.5 155.7 31.5H152.7Z" fill="#44372B"/>
<path d="M164.5 38.9C164.5 37.6 163.6 37.3 162 36.9C159.9 36.3 157.8 35.6 157.8 33C157.8 30.8 158.9 29.5 162 29.5C164.9 29.5 166.2 30.5 166.2 32.8C166.2 33.2 166.1 33.2 165.2 33.2C164.3 33.2 164.2 33.1 164.2 32.8C164.2 31.7 163.5 31.2 162 31.2C160.4 31.2 159.9 31.7 159.9 32.8C159.9 34.2 160.9 34.5 162.8 35.1C165.2 35.8 166.5 36.3 166.5 38.9C166.5 41.2 165.3 42.4 162 42.4C159.2 42.4 157.6 41.4 157.6 39.1C157.6 38.7 157.7 38.7 158.6 38.7C159.5 38.7 159.6 38.8 159.6 39.1C159.6 40.3 160.5 40.7 162 40.7C163.7 40.7 164.5 40.2 164.5 38.9Z" fill="#44372B"/>
<path d="M176.4 41.9V36.8H171.3V41.9C171.3 42.2 171.1 42.3 170.2 42.3C169.3 42.3 169.1 42.2 169.1 41.9V30C169.1 29.7 169.2 29.6 170.2 29.6C171.1 29.6 171.3 29.7 171.3 30V34.8H176.4V30C176.4 29.7 176.5 29.6 177.5 29.6C178.4 29.6 178.6 29.7 178.6 30V41.9C178.6 42.2 178.4 42.3 177.5 42.3C176.6 42.3 176.4 42.2 176.4 41.9Z" fill="#44372B"/>
<path d="M189 30L189.4 29.3C189.6 29.1 189.7 29 190.4 29C191.1 29 191.2 29.2 191.1 29.4L190.1 31C190.9 32 191.3 33.7 191.3 36C191.3 40.6 190 42.5 186.3 42.5C185.2 42.5 184.3 42.3 183.6 42L183.1 42.8C183 43 182.8 43.1 182.1 43.1C181.4 43.1 181.3 42.9 181.4 42.7L182.4 41C181.5 40 181.2 38.3 181.2 35.9C181.2 31.3 182.5 29.4 186.2 29.4C187.4 29.5 188.3 29.7 189 30ZM183.7 39L188 31.8C187.6 31.5 187 31.4 186.3 31.4C184.2 31.4 183.5 32.4 183.5 36.1C183.4 37.3 183.5 38.3 183.7 39ZM189.1 36C189.1 34.7 189 33.7 188.8 33L184.5 40.2C184.9 40.5 185.5 40.6 186.2 40.6C188.4 40.6 189.1 39.7 189.1 36Z" fill="#44372B"/>
<path d="M203.1 36.2V38.2C203.1 41.1 201.5 42.4 198.7 42.4C195.1 42.4 193.6 40.6 193.6 35.9C193.6 31.3 194.9 29.4 198.6 29.4C201.5 29.4 203 30.7 203 32.9C203 33.3 202.8 33.4 202 33.4C201.1 33.4 201 33.3 201 33C201 31.9 200.2 31.3 198.7 31.3C196.5 31.3 195.9 32.3 195.9 36C195.9 39.7 196.7 40.7 198.9 40.7C200.6 40.7 201.3 40 201.3 38.3V37.6H198.9C198.6 37.6 198.6 37.5 198.6 36.7C198.6 35.9 198.7 35.8 198.9 35.8H202.4C202.9 35.7 203.1 35.8 203.1 36.2Z" fill="#44372B"/>
<path d="M212.1 38.9C212.1 37.6 211.2 37.3 209.6 36.9C207.5 36.3 205.4 35.6 205.4 33C205.4 30.8 206.5 29.5 209.6 29.5C212.5 29.5 213.8 30.5 213.8 32.8C213.8 33.2 213.7 33.2 212.8 33.2C211.9 33.2 211.8 33.1 211.8 32.8C211.8 31.7 211.1 31.2 209.6 31.2C208 31.2 207.5 31.7 207.5 32.8C207.5 34.2 208.5 34.5 210.4 35.1C212.8 35.8 214.1 36.3 214.1 38.9C214.1 41.2 212.9 42.4 209.6 42.4C206.8 42.4 205.2 41.4 205.2 39.1C205.2 38.7 205.3 38.7 206.2 38.7C207.1 38.7 207.2 38.8 207.2 39.1C207.2 40.3 208.1 40.7 209.6 40.7C211.4 40.7 212.1 40.2 212.1 38.9Z" fill="#44372B"/>
<path d="M221.8 35.7L226 41.9C226.2 42.2 226 42.4 225 42.4C224.1 42.4 223.8 42.3 223.6 42L220 36.7H219V42C219 42.3 218.8 42.4 217.9 42.4C217 42.4 216.8 42.3 216.8 42V30C216.8 29.7 216.9 29.6 217.9 29.6C218.8 29.6 219 29.7 219 30V34.7H220.1L223.5 30C223.7 29.7 224 29.6 224.9 29.6C225.8 29.6 226.1 29.8 225.9 30.1L221.8 35.7Z" fill="#44372B"/>
<path d="M237.3 36C237.3 40.6 236 42.5 232.3 42.5C228.6 42.5 227.3 40.7 227.3 36C227.3 31.3 228.6 29.5 232.3 29.5C236 29.5 237.3 31.3 237.3 36ZM235.1 36C235.1 32.3 234.4 31.3 232.3 31.3C230.2 31.3 229.5 32.3 229.5 36C229.5 39.7 230.2 40.7 232.3 40.7C234.4 40.6 235.1 39.7 235.1 36Z" fill="#44372B"/>
<path d="M242.1 40.4H246.9C247.2 40.4 247.3 40.5 247.3 41.3C247.3 42.1 247.2 42.2 246.9 42.2H241C240.1 42.2 240 42.1 240 41.8V30C240 29.7 240.1 29.6 241.1 29.6C242 29.6 242.2 29.7 242.2 30V40.4H242.1Z" fill="#44372B"/>
<path d="M251.5 31.5V34.9H256.3C256.6 34.9 256.7 35 256.7 35.8C256.7 36.6 256.6 36.7 256.3 36.7H251.5V40.4H257C257.3 40.4 257.4 40.5 257.4 41.3C257.4 42.1 257.3 42.2 257 42.2H250.4C249.5 42.2 249.4 42.1 249.4 41.8V30.1C249.4 29.8 249.5 29.7 250.4 29.7H257C257.3 29.7 257.3 29.8 257.3 30.6C257.3 31.4 257.2 31.5 257 31.5H251.5Z" fill="#44372B"/>
<path d="M42.4 6.79999H39C38.9 6.79999 38.9 6.79999 38.9 6.89999V42.2C38.9 42.3 38.9 42.3 39 42.3H42.4C42.5 42.3 42.5 42.3 42.5 42.2V6.89999C42.5 6.79999 42.4 6.79999 42.4 6.79999Z" fill="#B92331"/>
<path d="M28.9 6.89999C28.9 6.79999 28.9 6.79999 28.8 6.79999H25.4C25.3 6.79999 25.3 6.79999 25.3 6.89999V32.2C25.3 32.2 0.9 1.49999 0.6 1.09999C0.4 0.899993 0 0.999993 0 1.29999V25.2C0 25.3 0 25.3 0.1 25.3H3.5C3.6 25.3 3.6 25.3 3.6 25.2V11.6L26 39.3C27.4 41 28.3 42.1 28.4 42.2C28.5 42.4 28.9 42.3 28.9 41.9V6.89999Z" fill="#B92331"/>
<path d="M80.5 13.1H77C76.9 13.1 76.9 13.1 76.9 13.2V21.1H56.1V6.89999C56.1 6.79999 56.1 6.79999 56 6.79999H52.6C52.5 6.79999 52.5 6.79999 52.5 6.89999V42.2C52.5 42.3 52.5 42.3 52.6 42.3H56C56.1 42.3 56.1 42.3 56.1 42.2V24.7H77V32.6C77 32.7 77 32.7 77.1 32.7H80.5C80.6 32.7 80.6 32.7 80.6 32.6V13.2L80.5 13.1Z" fill="#B92331"/>
</svg>
